<svg xmlns="http://www.w3.org/2000/svg" version="1.1" xmlns:xlink="http://www.w3.org/1999/xlink" xmlns:svgjs="http://svgjs.dev/svgjs" width="1800" height="300" preserveAspectRatio="none" viewBox="0 0 1800 300"><g mask="url(&quot;#SvgjsMask1042&quot;)" fill="none"><path d="M815.9584543106799 127.21922251061812L754.3631302318555 143.7236398550724 832.4628716551342 188.81454658944256z" fill="rgba(255, 246, 241, 0.4)" class="triangle-float1"></path><path d="M-3.95872593330854 237.15403235575724L-0.8771152614031967 295.9546668047444 85.78303107612494 261.93193357239284z" fill="rgba(255, 246, 241, 0.4)" class="triangle-float1"></path><path d="M684.02 105.9 a76.16 76.16 0 1 0 152.32 0 a76.16 76.16 0 1 0 -152.32 0z" fill="rgba(255, 246, 241, 0.4)" class="triangle-float2"></path><path d="M1509.12 144.65 a93.52 93.52 0 1 0 187.04 0 a93.52 93.52 0 1 0 -187.04 0z" fill="rgba(255, 246, 241, 0.4)" class="triangle-float2"></path><path d="M1272.5289355212717 110.68271528410453L1309.6253701370722 147.779149899905 1346.7218047528727 73.58628066830404z" fill="rgba(255, 246, 241, 0.4)" class="triangle-float3"></path><path d="M1082.384,247.504C1105.23,247.421,1126.833,234.085,1136.453,213.363C1144.964,195.03,1135.146,174.965,1123.836,158.214C1114.165,143.891,1099.657,133.842,1082.384,133.283C1064.042,132.689,1046.331,140.198,1036.007,155.371C1024.152,172.794,1018.151,194.936,1027.626,213.76C1037.958,234.285,1059.405,247.588,1082.384,247.504" fill="rgba(255, 246, 241, 0.4)" class="triangle-float2"></path><path d="M502.655,179.349C515.327,178.926,528.651,176.901,535.677,166.347C543.422,154.713,544.919,138.999,537.331,127.262C530.214,116.254,515.757,114.87,502.655,115.269C490.444,115.641,478.422,119.233,471.456,129.269C463.337,140.967,458.049,156.602,465.578,168.688C472.866,180.387,488.88,179.809,502.655,179.349" fill="rgba(255, 246, 241, 0.4)" class="triangle-float1"></path><path d="M29.74 118.11 a88.42 88.42 0 1 0 176.84 0 a88.42 88.42 0 1 0 -176.84 0z" fill="rgba(255, 246, 241, 0.4)" class="triangle-float1"></path><path d="M632.2889059934248 123.58056146412657L647.6779300922283 73.24533169463945 581.9536762239377 108.19153736532304z" fill="rgba(255, 246, 241, 0.4)" class="triangle-float3"></path><path d="M1058.636,167.119C1068.673,167.061,1079.884,167.685,1085.672,159.485C1092.182,150.262,1092.465,137.363,1086.321,127.892C1080.592,119.06,1069.162,117.65,1058.636,117.806C1048.468,117.957,1037.918,120.191,1032.335,128.691C1026.228,137.989,1024.77,150.622,1031.053,159.802C1036.811,168.215,1048.441,167.178,1058.636,167.119" fill="rgba(255, 246, 241, 0.4)" class="triangle-float2"></path><path d="M1316.705,335.859C1342.428,336.212,1372.867,339.897,1386.479,318.069C1400.494,295.594,1387.906,267.206,1373.294,245.114C1360.429,225.664,1340.013,211.839,1316.705,212.579C1294.516,213.284,1278.012,229.84,1266.017,248.521C1252.6,269.417,1237.707,294.721,1250.172,316.199C1262.613,337.636,1291.921,335.519,1316.705,335.859" fill="rgba(255, 246, 241, 0.4)" class="triangle-float1"></path></g><defs><mask id="SvgjsMask1042"><rect width="1800" height="300" fill="#ffffff"></rect></mask><style>
                @keyframes float1 {
                    0%{transform: translate(0, 0)}
                    50%{transform: translate(-10px, 0)}
                    100%{transform: translate(0, 0)}
                }

                .triangle-float1 {
                    animation: float1 5s infinite;
                }

                @keyframes float2 {
                    0%{transform: translate(0, 0)}
                    50%{transform: translate(-5px, -5px)}
                    100%{transform: translate(0, 0)}
                }

                .triangle-float2 {
                    animation: float2 4s infinite;
                }

                @keyframes float3 {
                    0%{transform: translate(0, 0)}
                    50%{transform: translate(0, -10px)}
                    100%{transform: translate(0, 0)}
                }

                .triangle-float3 {
                    animation: float3 6s infinite;
                }
            </style></defs></svg>