<svg xmlns="http://www.w3.org/2000/svg" version="1.1" xmlns:xlink="http://www.w3.org/1999/xlink" xmlns:svgjs="http://svgjs.dev/svgjs" width="1800" height="300" preserveAspectRatio="none" viewBox="0 0 1800 300"><g mask="url(&quot;#SvgjsMask1044&quot;)" fill="none"><path d="M1789.092,261.416C1809.591,262.389,1829.979,251.717,1839.24,233.404C1847.832,216.414,1839.877,197.1,1829.779,180.96C1820.451,166.05,1806.679,153.431,1789.092,153.247C1771.227,153.06,1755.645,164.511,1746.899,180.09C1738.345,195.328,1738.516,213.492,1746.564,229.004C1755.361,245.961,1770.01,260.51,1789.092,261.416" fill="rgba(255, 241, 241, 0.4)" class="triangle-float3"></path><path d="M1036.87 78.83 a51.24 51.24 0 1 0 102.48 0 a51.24 51.24 0 1 0 -102.48 0z" fill="rgba(255, 241, 241, 0.4)" class="triangle-float3"></path><path d="M1411.546,187.773C1421.632,187.077,1427.335,177.407,1432.425,168.672C1437.569,159.845,1443.326,150.032,1438.909,140.819C1434.037,130.658,1422.812,124.86,1411.546,125.127C1400.7,125.384,1391.696,132.63,1386.344,142.067C1381.073,151.362,1379.836,162.588,1384.996,171.946C1390.328,181.616,1400.529,188.534,1411.546,187.773" fill="rgba(255, 241, 241, 0.4)" class="triangle-float3"></path><path d="M1465.32 100.58 a82.14 82.14 0 1 0 164.28 0 a82.14 82.14 0 1 0 -164.28 0z" fill="rgba(255, 241, 241, 0.4)" class="triangle-float1"></path><path d="M1345.01 88.76 a80.41 80.41 0 1 0 160.82 0 a80.41 80.41 0 1 0 -160.82 0z" fill="rgba(255, 241, 241, 0.4)" class="triangle-float1"></path><path d="M777.09 76.52 a97.03 97.03 0 1 0 194.06 0 a97.03 97.03 0 1 0 -194.06 0z" fill="rgba(255, 241, 241, 0.4)" class="triangle-float1"></path><path d="M348.61 144.68 a80.34 80.34 0 1 0 160.68 0 a80.34 80.34 0 1 0 -160.68 0z" fill="rgba(255, 241, 241, 0.4)" class="triangle-float1"></path><path d="M1536.652,99.262C1562.081,100.139,1587.552,90.444,1601.068,68.887C1615.405,46.019,1617.589,16.102,1603.046,-6.636C1589.376,-28.009,1562.014,-32.512,1536.652,-31.831C1512.754,-31.19,1488.336,-23.802,1476.155,-3.231C1463.776,17.676,1467.148,43.771,1479.498,64.695C1491.628,85.245,1512.803,98.44,1536.652,99.262" fill="rgba(255, 241, 241, 0.4)" class="triangle-float1"></path><path d="M1083.9612562071613 131.63536607160373L1022.0880230367247 77.7461740735312 1007.1754847426282 147.90415074068807z" fill="rgba(255, 241, 241, 0.4)" class="triangle-float3"></path><path d="M838.7438542398272 51.05455464828762L894.7653411664577-11.044492171076783 823.5295892412984-27.490561361507673z" fill="rgba(255, 241, 241, 0.4)" class="triangle-float3"></path><path d="M602.004,394.98C627.904,394.76,648.322,376.217,661.932,354.18C676.461,330.655,687.485,302.141,674.38,277.794C660.771,252.51,630.638,240.708,602.004,242.844C576.57,244.741,558.468,265,546.189,287.355C534.473,308.685,529.079,333.611,540.283,355.215C552.359,378.501,575.774,395.203,602.004,394.98" fill="rgba(255, 241, 241, 0.4)" class="triangle-float3"></path></g><defs><mask id="SvgjsMask1044"><rect width="1800" height="300" fill="#ffffff"></rect></mask><style>
                @keyframes float1 {
                    0%{transform: translate(0, 0)}
                    50%{transform: translate(-10px, 0)}
                    100%{transform: translate(0, 0)}
                }

                .triangle-float1 {
                    animation: float1 5s infinite;
                }

                @keyframes float2 {
                    0%{transform: translate(0, 0)}
                    50%{transform: translate(-5px, -5px)}
                    100%{transform: translate(0, 0)}
                }

                .triangle-float2 {
                    animation: float2 4s infinite;
                }

                @keyframes float3 {
                    0%{transform: translate(0, 0)}
                    50%{transform: translate(0, -10px)}
                    100%{transform: translate(0, 0)}
                }

                .triangle-float3 {
                    animation: float3 6s infinite;
                }
            </style></defs></svg>