<svg xmlns="http://www.w3.org/2000/svg" version="1.1" xmlns:xlink="http://www.w3.org/1999/xlink" xmlns:svgjs="http://svgjs.dev/svgjs" width="1440" height="560" preserveAspectRatio="none" viewBox="0 0 1440 560"><g mask="url(&quot;#SvgjsMask1002&quot;)" fill="none"><path d="M309.58 631.15C437.75 617.19 514.08 338.83 733.16 336.94 952.23 335.05 944.94 406.94 1156.73 406.94 1368.52 406.94 1472.98 337.18 1580.31 336.94" stroke="rgba(255, 255, 255, 0.58)" stroke-width="2"></path><path d="M467.32 577.86C610.86 571.17 699.95 335.81 983.42 324.83 1266.9 313.85 1359.5 110.86 1499.53 106.43" stroke="rgba(255, 255, 255, 0.58)" stroke-width="2"></path><path d="M487.1 662.32C614.28 607.08 562.12 208.74 805.08 207.88 1048.04 207.02 1268.53 471.24 1441.05 476.68" stroke="rgba(255, 255, 255, 0.58)" stroke-width="2"></path><path d="M510.15 579.22C607.55 578.84 592.87 505.84 892.04 502.1 1191.2 498.36 1453.42 237.18 1655.81 233.3" stroke="rgba(255, 255, 255, 0.58)" stroke-width="2"></path><path d="M327.15 596.78C537.22 563.66 648.28 58.32 984.4 56.73 1320.52 55.14 1465.23 309.78 1641.65 314.33" stroke="rgba(255, 255, 255, 0.58)" stroke-width="2"></path></g><defs><mask id="SvgjsMask1002"><rect width="1440" height="560" fill="#ffffff"></rect></mask></defs></svg>